<svg width="27" height="27" viewBox="0 0 27 27" fill="none" xmlns="http://www.w3.org/2000/svg">
<path d="M13.7702 13.7617V4.03406" stroke="#343434" stroke-width="1.62128" stroke-linecap="round" stroke-linejoin="round"/>
<path d="M22.1944 8.89783L5.34558 18.6255" stroke="#343434" stroke-width="1.62128" stroke-linecap="round" stroke-linejoin="round"/>
<path d="M4.20475 15.5401C3.78358 13.2608 4.18881 10.906 5.34766 8.89864C6.50651 6.89124 8.34307 5.36275 10.5275 4.58765V11.8897L4.20475 15.5401Z" stroke="#343434" stroke-width="1.62128" stroke-linecap="round" stroke-linejoin="round"/>
<path d="M13.7704 4.03406C15.4747 4.03437 17.1491 4.48245 18.6257 5.33342C20.1024 6.18438 21.3295 7.40837 22.1843 8.88281C23.0391 10.3573 23.4915 12.0304 23.4963 13.7347C23.501 15.439 23.0579 17.1146 22.2113 18.5938C21.3647 20.073 20.1444 21.3037 18.6725 22.1629C17.2006 23.0221 15.5288 23.4794 13.8245 23.4892C12.1202 23.499 10.4433 23.0609 8.9616 22.2186C7.47993 21.3764 6.24553 20.1598 5.38202 18.6904" stroke="#343434" stroke-width="1.62128" stroke-linecap="round" stroke-linejoin="round"/>
</svg>
