<svg width="25" height="25" viewBox="0 0 25 25" fill="none" xmlns="http://www.w3.org/2000/svg">
<path d="M7.92499 10.8191C9.78895 10.8191 11.3 9.30805 11.3 7.44409C11.3 5.58013 9.78895 4.06909 7.92499 4.06909C6.06103 4.06909 4.54999 5.58013 4.54999 7.44409C4.54999 9.30805 6.06103 10.8191 7.92499 10.8191Z" stroke="#343434" stroke-width="1.5" stroke-linecap="round" stroke-linejoin="round"/>
<path d="M17.675 10.8191C19.5389 10.8191 21.05 9.30805 21.05 7.44409C21.05 5.58013 19.5389 4.06909 17.675 4.06909C15.811 4.06909 14.3 5.58013 14.3 7.44409C14.3 9.30805 15.811 10.8191 17.675 10.8191Z" stroke="#343434" stroke-width="1.5" stroke-linecap="round" stroke-linejoin="round"/>
<path d="M7.92499 20.5691C9.78895 20.5691 11.3 19.0581 11.3 17.1941C11.3 15.3301 9.78895 13.8191 7.92499 13.8191C6.06103 13.8191 4.54999 15.3301 4.54999 17.1941C4.54999 19.0581 6.06103 20.5691 7.92499 20.5691Z" stroke="#343434" stroke-width="1.5" stroke-linecap="round" stroke-linejoin="round"/>
<path d="M17.675 14.5691V19.8191" stroke="#343434" stroke-width="1.5" stroke-linecap="round" stroke-linejoin="round"/>
<path d="M20.3 17.1941H15.05" stroke="#343434" stroke-width="1.5" stroke-linecap="round" stroke-linejoin="round"/>
</svg>
